<svg width="16" height="15" viewBox="0 0 16 15" fill="none" xmlns="http://www.w3.org/2000/svg">
<path d="M15.7344 9.0625V13.5625C15.7344 13.8236 15.6307 14.074 15.4461 14.2586C15.2615 14.4432 15.0111 14.5469 14.75 14.5469H1.25C0.988928 14.5469 0.738548 14.4432 0.553942 14.2586C0.369336 14.074 0.265625 13.8236 0.265625 13.5625V9.0625C0.265625 8.80143 0.369336 8.55105 0.553942 8.36644C0.738548 8.18184 0.988928 8.07812 1.25 8.07812H4.0625C4.17439 8.07812 4.28169 8.12257 4.36081 8.20169C4.43993 8.28081 4.48438 8.38811 4.48438 8.5C4.48438 8.61189 4.43993 8.71919 4.36081 8.79831C4.28169 8.87743 4.17439 8.92188 4.0625 8.92188H1.25C1.2127 8.92188 1.17694 8.93669 1.15056 8.96306C1.12419 8.98944 1.10938 9.0252 1.10938 9.0625V13.5625C1.10938 13.5998 1.12419 13.6356 1.15056 13.6619C1.17694 13.6883 1.2127 13.7031 1.25 13.7031H14.75C14.7873 13.7031 14.8231 13.6883 14.8494 13.6619C14.8758 13.6356 14.8906 13.5998 14.8906 13.5625V9.0625C14.8906 9.0252 14.8758 8.98944 14.8494 8.96306C14.8231 8.93669 14.7873 8.92188 14.75 8.92188H11.9375C11.8256 8.92188 11.7183 8.87743 11.6392 8.79831C11.5601 8.71919 11.5156 8.61189 11.5156 8.5C11.5156 8.38811 11.5601 8.28081 11.6392 8.20169C11.7183 8.12257 11.8256 8.07812 11.9375 8.07812H14.75C15.0111 8.07812 15.2615 8.18184 15.4461 8.36644C15.6307 8.55105 15.7344 8.80143 15.7344 9.0625ZM7.70188 8.79813C7.78098 8.87713 7.8882 8.9215 8 8.9215C8.1118 8.9215 8.21902 8.87713 8.29813 8.79813L11.6731 5.42312C11.7476 5.34315 11.7882 5.23738 11.7863 5.12808C11.7844 5.01879 11.7401 4.91451 11.6628 4.83721C11.5855 4.75992 11.4812 4.71564 11.3719 4.71371C11.2626 4.71179 11.1568 4.75236 11.0769 4.82688L8.42188 7.48117V1.1875C8.42188 1.07561 8.37743 0.968306 8.29831 0.889189C8.21919 0.810072 8.11189 0.765625 8 0.765625C7.88811 0.765625 7.78081 0.810072 7.70169 0.889189C7.62257 0.968306 7.57812 1.07561 7.57812 1.1875V7.48117L4.92312 4.82688C4.84315 4.75236 4.73738 4.71179 4.62808 4.71371C4.51879 4.71564 4.41451 4.75992 4.33721 4.83721C4.25992 4.91451 4.21564 5.01879 4.21371 5.12808C4.21179 5.23738 4.25236 5.34315 4.32688 5.42312L7.70188 8.79813ZM12.9219 11.3125C12.9219 11.1734 12.8806 11.0375 12.8034 10.9219C12.7261 10.8062 12.6163 10.7161 12.4878 10.6629C12.3593 10.6097 12.218 10.5958 12.0816 10.6229C11.9452 10.65 11.8199 10.717 11.7216 10.8153C11.6232 10.9136 11.5563 11.0389 11.5291 11.1753C11.502 11.3117 11.5159 11.4531 11.5691 11.5816C11.6224 11.7101 11.7125 11.8199 11.8281 11.8971C11.9437 11.9744 12.0797 12.0156 12.2188 12.0156C12.4052 12.0156 12.5841 11.9415 12.7159 11.8097C12.8478 11.6778 12.9219 11.499 12.9219 11.3125Z" fill="white"/>
</svg>
